<svg xmlns="http://www.w3.org/2000/svg" version="1.1" xmlns:xlink="http://www.w3.org/1999/xlink" xmlns:svgjs="http://svgjs.dev/svgjs" width="1500" height="1687" viewBox="0 0 1500 1687"><g transform="matrix(1,0,0,1,0.00002668866648036783,0)"><svg viewBox="0 0 320 360" data-background-color="#000000" preserveAspectRatio="xMidYMid meet" height="1687" width="1500" xmlns="http://www.w3.org/2000/svg" xmlns:xlink="http://www.w3.org/1999/xlink"><g id="tight-bounds" transform="matrix(1,0,0,1,0.000005693582238563977,0)"><svg viewBox="0 0 320 360" height="360" width="320"><g><svg></svg></g><g><svg viewBox="0 0 320 360" height="360" width="320"><g><path transform="translate(-8.74414,11.24127) scale(3.37517,3.37517)" d="M89.9 29.89c-2.6-3.17-7.52-4.8-12.74-6.52-2.24-0.74-4.55-1.51-6.81-2.44-2.28-0.94-4.52-2.15-6.7-3.31-4.43-2.38-9.01-4.84-13.66-4.84-4.64 0-9.22 2.46-13.65 4.84-2.18 1.17-4.43 2.38-6.71 3.32-2.25 0.93-4.57 1.69-6.81 2.44-5.22 1.73-10.14 3.36-12.74 6.52-3.47 4.23-3.39 10.5-3.31 17.13 0.01 1 0.02 1.99 0.02 2.97 0 0.98-0.01 1.97-0.03 2.97-0.08 6.64-0.16 12.9 3.31 17.14 2.6 3.16 7.52 4.79 12.73 6.52 2.24 0.74 4.55 1.51 6.82 2.44 2.28 0.94 4.52 2.14 6.69 3.31 4.44 2.39 9.02 4.85 13.66 4.85 4.65 0 9.23-2.46 13.66-4.84 2.18-1.17 4.42-2.38 6.7-3.31 2.25-0.93 4.55-1.69 6.78-2.43 5.25-1.74 10.17-3.37 12.77-6.53 3.47-4.23 3.39-10.5 3.31-17.13-0.01-1.01-0.03-2-0.03-2.98 0-0.98 0.01-1.97 0.03-2.96 0.11-6.66 0.19-12.93-3.29-17.16zM93.12 27.25c-4.66-5.68-13.57-7.03-21.18-10.17-6.81-2.8-13.74-8.47-21.94-8.47-8.2 0-15.13 5.67-21.94 8.47-7.62 3.14-16.52 4.49-21.18 10.17-5.06 6.16-4.24 14.85-4.24 22.75 0 7.89-0.82 16.59 4.23 22.75 4.66 5.68 13.57 7.03 21.18 10.17 6.81 2.81 13.74 8.47 21.94 8.47 8.2 0 15.13-5.66 21.94-8.47 7.62-3.14 16.52-4.49 21.18-10.17 5.05-6.16 4.23-14.85 4.23-22.75 0.02-7.9 0.84-16.59-4.22-22.75zM94.4 52.94c0.09 6.88 0.17 13.35-3.58 17.92-2.82 3.43-7.9 5.12-13.28 6.9-2.24 0.74-4.53 1.5-6.73 2.41-2.22 0.91-4.43 2.1-6.57 3.25-4.58 2.46-9.29 4.99-14.24 4.99-4.95 0-9.66-2.53-14.22-4.98-2.15-1.16-4.37-2.35-6.59-3.26-2.23-0.92-4.52-1.68-6.74-2.41-5.39-1.78-10.47-3.47-13.28-6.9-3.74-4.56-3.66-11.04-3.58-17.9 0.01-1 0.03-1.98 0.03-2.96 0-0.98-0.01-1.96-0.02-2.96-0.09-6.86-0.17-13.34 3.58-17.9 2.82-3.43 7.9-5.11 13.28-6.9 2.23-0.74 4.52-1.5 6.74-2.41 2.22-0.92 4.44-2.11 6.59-3.26 4.56-2.45 9.28-4.99 14.22-4.99 4.94 0 9.66 2.53 14.22 4.98 2.15 1.16 4.37 2.35 6.59 3.26 2.22 0.92 4.52 1.67 6.73 2.41 5.38 1.78 10.47 3.47 13.28 6.9 3.75 4.57 3.67 11.04 3.58 17.9-0.01 1.01-0.03 1.99-0.03 2.96 0 0.98 0.01 1.96 0.02 2.95z" fill="#dee2e7" fill-rule="nonzero" stroke="none" stroke-width="1" stroke-linecap="butt" stroke-linejoin="miter" stroke-miterlimit="10" stroke-dasharray="" stroke-dashoffset="0" font-family="none" font-weight="none" font-size="none" text-anchor="none" style="mix-blend-mode: normal" data-fill-palette-color="tertiary"></path></g><g transform="matrix(1,0,0,1,90.2043548147039,108)"><svg viewBox="0 0 139.5912903705922 144" height="144" width="139.5912903705922"><g><svg viewBox="0 0 192 198.06393311931606" height="144" width="139.5912903705922"><g transform="matrix(1,0,0,1,0,140.10819726815242)"><svg viewBox="0 0 192 57.955735851163624" height="57.955735851163624" width="192"><g id="textblocktransform"><svg viewBox="0 0 192 57.955735851163624" height="57.955735851163624" width="192" id="textblock"><g><svg viewBox="0 0 192 36.34795111430625" height="36.34795111430625" width="192"><g transform="matrix(1,0,0,1,0,0)"><svg width="192" viewBox="1.7 -39 208.63000000000002 39.5" height="36.34795111430625" data-palette-color="#000000"><path d="M5.55-3.25L5.55-23.75 1.7-24.7 1.7-27 10.9-27 10.9-3.25 14.75-2.3 14.75 0 1.7 0 1.7-2.3 5.55-3.25ZM4.9-34.9L4.9-34.9Q4.9-36.4 5.8-37.3 6.7-38.2 8.2-38.2L8.2-38.2Q9.75-38.2 10.65-37.3 11.55-36.4 11.55-34.9L11.55-34.9Q11.55-33.45 10.68-32.55 9.8-31.65 8.2-31.65L8.2-31.65Q6.65-31.65 5.78-32.52 4.9-33.4 4.9-34.9ZM39.9-25.1L39.9-11.9 36.85-11.9 35.95-16.85 28.15-16.85 28.15-3.25 42.8-3.25 44.3-11.15 47.7-11.15 47.7 0 17.95 0 17.95-2.4 22.65-3.45 22.65-32.55 17.95-33.6 17.95-36 46.6-36 46.6-25.4 43.5-25.4 41.95-32.85 28.15-32.85 28.15-20.1 35.95-20.1 36.85-25.1 39.9-25.1ZM52.5-13.3L52.5-13.3Q52.5-16.6 53.37-19.53 54.25-22.45 55.9-24.25L55.9-24.25Q57.35-25.85 59.35-26.68 61.35-27.5 63.95-27.5L63.95-27.5Q66.2-27.5 68-26.65 69.8-25.8 71.25-23.6L71.25-23.6 71.25-35.75 67.4-36.7 67.4-39 76.59-39 76.59-3.25 80.45-2.3 80.45 0 72.2 0.5 71.8-3.6Q70.25-1.3 68.3-0.4 66.34 0.5 63.9 0.5L63.9 0.5Q61.3 0.5 59.3-0.28 57.3-1.05 55.95-2.65L55.95-2.65Q54.4-4.55 53.45-7.3 52.5-10.05 52.5-13.3ZM71.25-13.3L71.25-13.3Q71.25-16.3 70.8-18.53 70.34-20.75 69.55-22.05L69.55-22.05Q68.75-23.3 67.59-23.98 66.45-24.65 64.65-24.65L64.65-24.65Q63.15-24.65 61.87-24.08 60.6-23.5 59.85-22.3L59.85-22.3Q59-21.05 58.62-18.8 58.25-16.55 58.25-13.75L58.25-13.75Q58.25-10.75 58.7-8.55 59.15-6.35 59.9-5L59.9-5Q60.7-3.75 61.9-3.05 63.1-2.35 64.8-2.35L64.8-2.35Q66.34-2.35 67.59-2.9 68.84-3.45 69.55-4.65L69.55-4.65Q70.34-6 70.8-8.2 71.25-10.4 71.25-13.3ZM82.94-27L91.64-27 91.64-13.1Q91.64-9.9 91.82-8.28 91.99-6.65 92.39-5.75L92.39-5.75Q92.89-4.55 93.94-3.93 94.99-3.3 96.24-3.3L96.24-3.3Q97.59-3.3 98.79-3.8 99.99-4.3 100.94-5.15L100.94-5.15Q102.99-7 103.19-10.9L103.19-10.9 103.19-23.75 98.84-24.7 98.84-27 108.54-27 108.54-3.25 112.39-2.3 112.39 0 104.14 0.5 103.59-5 103.39-5Q101.94-2.45 99.44-0.98 96.94 0.5 94.09 0.5L94.09 0.5Q92.19 0.5 90.62-0.23 89.04-0.95 88.14-2.2L88.14-2.2Q87.19-3.6 86.74-6.15 86.29-8.7 86.29-12.95L86.29-12.95 86.29-23.75 82.94-24.7 82.94-27ZM128.59-27.5L128.59-27.5Q131.59-27.5 133.79-26.53 135.99-25.55 137.24-23.8 138.49-22.05 138.49-19.7L138.49-19.7Q138.49-17.7 137.56-16.65 136.64-15.6 135.04-15.6L135.04-15.6Q133.44-15.6 132.64-16.53 131.84-17.45 131.84-18.8L131.84-18.8Q131.84-20.05 132.49-20.95 133.14-21.85 134.34-22.2L134.34-22.2Q133.64-23.45 132.24-24.08 130.84-24.7 128.89-24.7L128.89-24.7Q125.09-24.7 123.27-22.15 121.44-19.6 121.44-13.85L121.44-13.85Q121.44-11.3 121.77-9.6 122.09-7.9 122.74-6.7L122.74-6.7Q123.69-5 125.19-4.05 126.69-3.1 128.84-3.1L128.84-3.1Q131.09-3.1 133.24-4.1 135.39-5.1 136.89-7L136.89-7 138.79-5.5Q136.69-2.4 133.92-0.95 131.14 0.5 127.64 0.5L127.64 0.5Q124.09 0.5 121.52-0.93 118.94-2.35 117.49-5.1L117.49-5.1Q115.69-8.45 115.69-13.2L115.69-13.2Q115.69-17.55 117.27-20.75 118.84-23.95 121.77-25.73 124.69-27.5 128.59-27.5ZM142.24-5.85L142.24-5.85Q142.24-9.85 145.94-12.1 149.64-14.35 157.99-15.6L157.99-15.6Q157.79-18.4 157.44-19.95 157.09-21.5 156.54-22.5L156.54-22.5Q155.89-23.75 154.74-24.4 153.59-25.05 152.14-25.05L152.14-25.05Q150.84-25.05 149.79-24.58 148.74-24.1 148.39-23.3L148.39-23.3Q149.09-22.85 149.39-22.08 149.69-21.3 149.69-20.65L149.69-20.65Q149.69-19.4 148.79-18.6 147.89-17.8 146.54-17.8L146.54-17.8Q145.24-17.8 144.41-18.68 143.59-19.55 143.59-21L143.59-21Q143.59-23.1 145.04-24.55 146.49-26 148.74-26.75 150.99-27.5 153.24-27.5L153.24-27.5Q155.39-27.5 157.16-26.85 158.94-26.2 160.14-25.1L160.14-25.1Q163.49-21.85 163.49-14.05L163.49-14.05 163.49-7.05Q163.49-4.6 163.81-3.65 164.14-2.7 165.24-2.7L165.24-2.7 167.49-2.7 167.49-0.95Q163.59 0.5 161.44 0.5L161.44 0.5Q159.89 0.5 159.34-0.63 158.79-1.75 158.79-4.95L158.79-4.95 158.59-4.95Q157.04-2.4 154.49-0.95 151.94 0.5 148.99 0.5L148.99 0.5Q145.84 0.5 144.04-1.2 142.24-2.9 142.24-5.85ZM151.44-2.65L151.44-2.65Q152.69-2.65 154.14-3.38 155.59-4.1 156.59-5.35L156.59-5.35Q157.34-6.25 157.74-7.6 158.14-8.95 158.14-10.8L158.14-10.8Q158.14-11.55 158.09-12.35 158.04-13.15 157.94-13.9L157.94-13.9Q154.09-13.1 151.91-12.2 149.74-11.3 148.81-10.05 147.89-8.8 147.89-7L147.89-7Q147.89-4.85 148.89-3.75 149.89-2.65 151.44-2.65ZM172.79-24.25L167.94-24.25 167.94-26.3 172.79-27 173.44-33.25 178.14-33.95 178.14-27 184.54-27 184.54-24.25 178.14-24.25 178.14-6.9Q178.14-5.2 178.19-4.58 178.24-3.95 178.39-3.55L178.39-3.55Q178.54-3.2 178.94-3.08 179.34-2.95 180.24-2.95L180.24-2.95 183.74-2.95 183.74-1.25Q181.14-0.35 179.19 0.08 177.24 0.5 176.09 0.5L176.09 0.5Q173.84 0.5 173.19-1.35L173.19-1.35Q172.99-1.95 172.89-2.9 172.79-3.85 172.79-5.7L172.79-5.7 172.79-24.25ZM210.18-13.05L210.18-13.05 192.73-13.05Q192.73-9.5 193.73-7.15L193.73-7.15Q194.68-5.05 196.36-4.08 198.03-3.1 200.13-3.1L200.13-3.1Q202.43-3.1 204.46-4.08 206.48-5.05 208.03-6.85L208.03-6.85 209.98-5.35Q208.23-2.95 205.58-1.23 202.93 0.5 198.83 0.5L198.83 0.5Q195.33 0.5 192.68-0.98 190.03-2.45 188.63-5.3L188.63-5.3Q187.88-6.85 187.53-8.75 187.18-10.65 187.18-12.8L187.18-12.8Q187.18-19.8 190.41-23.65 193.63-27.5 199.28-27.5L199.28-27.5Q204.53-27.5 207.43-24.33 210.33-21.15 210.33-15.55L210.33-15.55Q210.33-15.05 210.31-14.58 210.28-14.1 210.18-13.05ZM199.08-24.55L199.08-24.55Q193.33-24.55 192.78-15.75L192.78-15.75 204.78-15.75 204.78-17.3Q204.78-20.8 203.28-22.68 201.78-24.55 199.08-24.55Z" opacity="1" transform="matrix(1,0,0,1,0,0)" fill="#000000" class="wordmark-text-0" data-fill-palette-color="quaternary" id="text-0"></path></svg></g></svg></g><g transform="matrix(1,0,0,1,0,44.92883002156721)"><svg viewBox="0 0 192 13.026905829596412" height="13.026905829596412" width="192"><g transform="matrix(1,0,0,1,0,0)"><svg width="192" viewBox="2.6 -35.85 535.15 36.312345654320005" height="13.026905829596412" data-palette-color="#000000"><path d="M6.3-6.8L6.3-27Q6.3-28.8 6-29.73 5.7-30.65 4.98-31.05 4.25-31.45 2.9-31.55L2.9-31.55Q2.7-32 2.65-32.63 2.6-33.25 2.6-33.95L2.6-33.95Q3.55-33.9 4.63-33.88 5.7-33.85 6.88-33.83 8.05-33.8 9.1-33.8L9.1-33.8Q10.2-33.8 11.3-33.83 12.4-33.85 13.45-33.88 14.5-33.9 15.5-33.95L15.5-33.95Q15.5-33.25 15.45-32.63 15.4-32 15.25-31.55L15.25-31.55Q13.95-31.45 13.18-31.05 12.4-30.65 12.1-29.73 11.8-28.8 11.8-27L11.8-27 11.8-6.8Q11.8-5.05 12.1-4.1 12.4-3.15 13.18-2.75 13.95-2.35 15.25-2.25L15.25-2.25Q15.4-1.85 15.45-1.23 15.5-0.6 15.5 0.15L15.5 0.15Q14.1 0.05 12.45 0.03 10.8 0 9.2 0L9.2 0Q7.55 0 5.75 0.03 3.95 0.05 2.6 0.15L2.6 0.15Q2.6-0.6 2.68-1.23 2.75-1.85 2.9-2.25L2.9-2.25Q4.25-2.35 4.98-2.75 5.7-3.15 6-4.1 6.3-5.05 6.3-6.8L6.3-6.8ZM28.9-21L23.6-10.6 23.6-15.8Q23.6-17.1 23.37-17.88 23.15-18.65 22.35-19.05 21.55-19.45 19.9-19.5L19.9-19.5Q19.9-20.1 20-20.65 20.1-21.2 20.35-21.65L20.35-21.65Q22.25-21.75 24.4-22.25 26.55-22.75 27.7-23.35L27.7-23.35Q28.2-23.15 28.55-22.65 28.9-22.15 28.9-21L28.9-21ZM44-14.95L44-6.6Q44-4.05 44.67-3.15 45.35-2.25 46.85-2.25L46.85-2.25Q47-1.75 47.05-1.2 47.1-0.65 47.1 0.15L47.1 0.15Q46 0.05 44.5 0.03 43 0 41.45 0L41.45 0Q40.4 0 39.22 0.03 38.05 0.05 37 0.08 35.95 0.1 35.15 0.15L35.15 0.15Q35.15-0.6 35.2-1.2 35.25-1.8 35.45-2.25L35.45-2.25Q37.1-2.25 37.9-3.2 38.7-4.15 38.7-6.7L38.7-6.7 38.7-13.65Q38.7-17.1 37.5-18.35 36.3-19.6 34.3-19.6L34.3-19.6Q33.05-19.6 31.8-18.75 30.55-17.9 29.72-16.1 28.9-14.3 28.9-11.35L28.9-11.35 28.9-6.6Q28.9-4.1 29.62-3.18 30.35-2.25 32.15-2.25L32.15-2.25Q32.35-1.75 32.4-1.18 32.45-0.6 32.45 0.15L32.45 0.15Q31.75 0.1 30.7 0.08 29.65 0.05 28.5 0.03 27.35 0 26.25 0L26.25 0Q25.2 0 24.02 0.03 22.85 0.05 21.75 0.08 20.65 0.1 19.9 0.15L19.9 0.15Q19.9-0.6 19.97-1.23 20.05-1.85 20.2-2.25L20.2-2.25Q22.15-2.25 22.87-3.18 23.6-4.1 23.6-6.6L23.6-6.6 23.6-15.8 28.9-21Q28.9-20.4 28.82-19.65 28.75-18.9 28.5-18.05L28.5-18.05Q28.7-18.4 28.9-18.8 29.1-19.2 29.45-19.65L29.45-19.65Q30.35-20.8 32.2-21.95 34.05-23.1 36.6-23.1L36.6-23.1Q38.55-23.1 40.25-22.33 41.95-21.55 42.97-19.78 44-18 44-14.95L44-14.95ZM59.7-21L54.4-10.6 54.4-15.8Q54.4-17.1 54.17-17.88 53.95-18.65 53.15-19.05 52.35-19.45 50.7-19.5L50.7-19.5Q50.7-20.1 50.8-20.65 50.9-21.2 51.15-21.65L51.15-21.65Q53.05-21.75 55.2-22.25 57.35-22.75 58.5-23.35L58.5-23.35Q59-23.15 59.35-22.65 59.7-22.15 59.7-21L59.7-21ZM74.8-14.95L74.8-6.6Q74.8-4.05 75.47-3.15 76.15-2.25 77.65-2.25L77.65-2.25Q77.8-1.75 77.84-1.2 77.9-0.65 77.9 0.15L77.9 0.15Q76.8 0.05 75.3 0.03 73.8 0 72.25 0L72.25 0Q71.2 0 70.02 0.03 68.84 0.05 67.8 0.08 66.75 0.1 65.95 0.15L65.95 0.15Q65.95-0.6 66-1.2 66.05-1.8 66.25-2.25L66.25-2.25Q67.9-2.25 68.7-3.2 69.5-4.15 69.5-6.7L69.5-6.7 69.5-13.65Q69.5-17.1 68.3-18.35 67.09-19.6 65.09-19.6L65.09-19.6Q63.85-19.6 62.6-18.75 61.35-17.9 60.52-16.1 59.7-14.3 59.7-11.35L59.7-11.35 59.7-6.6Q59.7-4.1 60.42-3.18 61.15-2.25 62.95-2.25L62.95-2.25Q63.15-1.75 63.2-1.18 63.25-0.6 63.25 0.15L63.25 0.15Q62.55 0.1 61.5 0.08 60.45 0.05 59.3 0.03 58.15 0 57.05 0L57.05 0Q56 0 54.82 0.03 53.65 0.05 52.55 0.08 51.45 0.1 50.7 0.15L50.7 0.15Q50.7-0.6 50.77-1.23 50.85-1.85 51-2.25L51-2.25Q52.95-2.25 53.67-3.18 54.4-4.1 54.4-6.6L54.4-6.6 54.4-15.8 59.7-21Q59.7-20.4 59.62-19.65 59.55-18.9 59.3-18.05L59.3-18.05Q59.5-18.4 59.7-18.8 59.9-19.2 60.25-19.65L60.25-19.65Q61.15-20.8 63-21.95 64.84-23.1 67.4-23.1L67.4-23.1Q69.34-23.1 71.05-22.33 72.75-21.55 73.77-19.78 74.8-18 74.8-14.95L74.8-14.95ZM93.24 0.45L93.24 0.45Q89.69 0.45 87.07-1.03 84.44-2.5 83.02-5.15 81.59-7.8 81.59-11.4L81.59-11.4Q81.59-14.9 83.12-17.6 84.64-20.3 87.29-21.83 89.94-23.35 93.29-23.35L93.29-23.35Q97.04-23.35 99.64-21.85 102.24-20.35 103.59-17.7 104.94-15.05 104.94-11.5L104.94-11.5Q104.94-8.05 103.49-5.33 102.04-2.6 99.42-1.07 96.79 0.45 93.24 0.45ZM93.74-2.2L93.74-2.2Q96.54-2.2 97.89-4.58 99.24-6.95 99.24-10.75L99.24-10.75Q99.24-13.85 98.37-16.13 97.49-18.4 96.02-19.58 94.54-20.75 92.79-20.75L92.79-20.75Q90.04-20.75 88.69-18.45 87.34-16.15 87.34-12.55L87.34-12.55Q87.34-9.35 88.12-7 88.89-4.65 90.34-3.43 91.79-2.2 93.74-2.2ZM119.04 0.45L119.04 0.45Q118.54-0.65 117.72-2.58 116.89-4.5 115.92-6.75 114.94-9 113.94-11.2 112.94-13.4 112.17-15.08 111.39-16.75 111.04-17.5L111.04-17.5Q110.39-18.8 109.94-19.43 109.49-20.05 109.07-20.3 108.64-20.55 107.94-20.65L107.94-20.65Q107.74-21.3 107.67-21.8 107.59-22.3 107.59-23.05L107.59-23.05Q108.69-23 110.14-22.95 111.59-22.9 113.24-22.9L113.24-22.9Q114.39-22.9 115.59-22.93 116.79-22.95 117.87-22.98 118.94-23 119.74-23.05L119.74-23.05Q119.74-22.45 119.64-21.83 119.54-21.2 119.39-20.7L119.39-20.7Q116.99-20.5 116.57-19.9 116.14-19.3 117.09-17.3L117.09-17.3Q117.49-16.45 118.12-15 118.74-13.55 119.47-11.73 120.19-9.9 120.94-8.03 121.69-6.15 122.29-4.55L122.29-4.55 121.49-4.55Q122.74-7.8 123.77-10.33 124.79-12.85 125.74-15.15L125.74-15.15Q126.94-18.15 126.44-19.33 125.94-20.5 124.09-20.65L124.09-20.65Q123.84-21.2 123.69-21.83 123.54-22.45 123.54-23.05L123.54-23.05Q124.54-23 125.79-22.95 127.04-22.9 128.24-22.9L128.24-22.9Q129.49-22.9 130.79-22.95 132.09-23 132.99-23.05L132.99-23.05Q132.99-22.35 132.89-21.73 132.79-21.1 132.54-20.65L132.54-20.65Q131.74-20.45 131.14-19.95 130.54-19.45 129.97-18.43 129.39-17.4 128.64-15.55L128.64-15.55 121.84-0.05Q121.29 0.2 120.52 0.35 119.74 0.5 119.04 0.45ZM151.19 0.45L151.19 0.45Q150.59 0.2 150.24-0.48 149.89-1.15 149.89-2.5L149.89-2.5Q149.89-3 149.96-3.68 150.04-4.35 150.19-4.95L150.19-4.95 150.34-4.95Q150.14-4 149.56-3.05 148.99-2.1 148.14-1.35L148.14-1.35Q147.24-0.6 145.89-0.13 144.54 0.35 142.69 0.35L142.69 0.35Q139.49 0.35 137.76-1.07 136.04-2.5 136.04-5.05L136.04-5.05Q136.04-7 136.96-8.38 137.89-9.75 139.36-10.68 140.84-11.6 142.59-12.15 144.34-12.7 146.06-13.03 147.79-13.35 149.19-13.55L149.19-13.55Q149.19-15.45 149.11-16.55 149.04-17.65 148.81-18.32 148.59-19 148.14-19.5L148.14-19.5Q147.54-20.2 146.79-20.55 146.04-20.9 145.14-20.9L145.14-20.9Q143.54-20.9 142.64-19.93 141.74-18.95 141.34-17.63 140.94-16.3 140.84-15.15L140.84-15.15Q140.14-15.15 139.24-15.25 138.34-15.35 137.79-15.55L137.79-15.55Q137.89-16.85 137.86-18.4 137.84-19.95 137.54-21.15L137.54-21.15Q139.64-22.2 142.04-22.78 144.44-23.35 146.49-23.35L146.49-23.35Q148.64-23.35 150.09-22.8 151.54-22.25 152.34-21.35L152.34-21.35Q153.59-20.15 154.04-18.18 154.49-16.2 154.49-12.8L154.49-12.8 154.49-7.65Q154.49-6.2 154.71-5.35 154.94-4.5 155.59-4.13 156.24-3.75 157.54-3.7L157.54-3.7Q157.59-3.1 157.51-2.4 157.44-1.7 157.19-1.1L157.19-1.1Q155.79-1.05 154.14-0.65 152.49-0.25 151.19 0.45ZM144.39-2.8L144.39-2.8Q145.49-2.8 146.59-3.53 147.69-4.25 148.44-5.73 149.19-7.2 149.19-9.6L149.19-9.6 149.19-11.35Q147.89-11.15 146.54-10.85 145.19-10.55 144.06-10 142.94-9.45 142.26-8.55 141.59-7.65 141.59-6.15L141.59-6.15Q141.59-4.4 142.44-3.6 143.29-2.8 144.39-2.8ZM169.99 0.45L169.99 0.45Q166.89 0.45 165.36-1.15 163.84-2.75 163.84-6.4L163.84-6.4 163.84-19.3Q163.09-19.55 162.26-19.73 161.44-19.9 160.24-19.95L160.24-19.95Q160.24-20.65 160.34-21.2 160.44-21.75 160.69-22.4L160.69-22.4 163.84-22.4 163.84-28.85Q165.03-29.1 166.21-29.7 167.39-30.3 168.19-31L168.19-31Q168.74-30.8 168.94-30.35 169.14-29.9 169.14-28.25L169.14-28.25 169.14-22.4 175.53-22.4Q175.53-21.8 175.44-21.15 175.34-20.5 175.09-19.9L175.09-19.9Q173.28-19.9 171.81-19.7 170.34-19.5 169.14-19.25L169.14-19.25 169.14-7.4Q169.14-5.65 169.46-4.58 169.78-3.5 170.41-3 171.03-2.5 171.94-2.5L171.94-2.5Q172.94-2.5 173.71-2.78 174.49-3.05 175.19-3.6L175.19-3.6Q175.84-2.8 175.94-1.7L175.94-1.7Q175.09-0.8 173.39-0.18 171.69 0.45 169.99 0.45ZM179.03 0.15L179.03 0.15Q179.03-0.45 179.11-1.1 179.18-1.75 179.33-2.25L179.33-2.25Q181.33-2.3 182.03-3.2 182.73-4.1 182.73-6.6L182.73-6.6 182.73-15.95Q182.73-17.15 182.51-17.93 182.28-18.7 181.48-19.1 180.68-19.5 178.98-19.5L178.98-19.5Q178.98-20.1 179.11-20.65 179.23-21.2 179.48-21.65L179.48-21.65Q180.48-21.65 181.98-21.9 183.48-22.15 184.83-22.55 186.18-22.95 186.83-23.35L186.83-23.35Q187.33-23.15 187.68-22.65 188.03-22.15 188.03-21.15L188.03-21.15 188.03-6.6Q188.03-4.1 188.71-3.2 189.38-2.3 191.03-2.25L191.03-2.25Q191.18-1.75 191.23-1.05 191.28-0.35 191.28 0.15L191.28 0.15Q190.48 0.1 189.48 0.08 188.48 0.05 187.38 0.03 186.28 0 185.23 0L185.23 0Q184.13 0 183.01 0.03 181.88 0.05 180.86 0.08 179.83 0.1 179.03 0.15ZM184.93-28.5L184.93-28.5Q183.48-28.5 182.56-29.38 181.63-30.25 181.63-31.55L181.63-31.55Q181.63-33.05 182.63-33.95 183.63-34.85 184.98-34.85L184.98-34.85Q186.53-34.85 187.43-33.95 188.33-33.05 188.33-31.6L188.33-31.6Q188.33-30.35 187.36-29.43 186.38-28.5 184.93-28.5ZM206.58 0.45L206.58 0.45Q203.03 0.45 200.41-1.03 197.78-2.5 196.36-5.15 194.93-7.8 194.93-11.4L194.93-11.4Q194.93-14.9 196.46-17.6 197.98-20.3 200.63-21.83 203.28-23.35 206.63-23.35L206.63-23.35Q210.38-23.35 212.98-21.85 215.58-20.35 216.93-17.7 218.28-15.05 218.28-11.5L218.28-11.5Q218.28-8.05 216.83-5.33 215.38-2.6 212.76-1.07 210.13 0.45 206.58 0.45ZM207.08-2.2L207.08-2.2Q209.88-2.2 211.23-4.58 212.58-6.95 212.58-10.75L212.58-10.75Q212.58-13.85 211.71-16.13 210.83-18.4 209.36-19.58 207.88-20.75 206.13-20.75L206.13-20.75Q203.38-20.75 202.03-18.45 200.68-16.15 200.68-12.55L200.68-12.55Q200.68-9.35 201.46-7 202.23-4.65 203.68-3.43 205.13-2.2 207.08-2.2ZM231.03-21L225.73-10.6 225.73-15.8Q225.73-17.1 225.5-17.88 225.28-18.65 224.48-19.05 223.68-19.45 222.03-19.5L222.03-19.5Q222.03-20.1 222.13-20.65 222.23-21.2 222.48-21.65L222.48-21.65Q224.38-21.75 226.53-22.25 228.68-22.75 229.83-23.35L229.83-23.35Q230.33-23.15 230.68-22.65 231.03-22.15 231.03-21L231.03-21ZM246.13-14.95L246.13-6.6Q246.13-4.05 246.8-3.15 247.48-2.25 248.98-2.25L248.98-2.25Q249.13-1.75 249.18-1.2 249.23-0.65 249.23 0.15L249.23 0.15Q248.13 0.05 246.63 0.03 245.13 0 243.58 0L243.58 0Q242.53 0 241.35 0.03 240.18 0.05 239.13 0.08 238.08 0.1 237.28 0.15L237.28 0.15Q237.28-0.6 237.33-1.2 237.38-1.8 237.58-2.25L237.58-2.25Q239.23-2.25 240.03-3.2 240.83-4.15 240.83-6.7L240.83-6.7 240.83-13.65Q240.83-17.1 239.63-18.35 238.43-19.6 236.43-19.6L236.43-19.6Q235.18-19.6 233.93-18.75 232.68-17.9 231.85-16.1 231.03-14.3 231.03-11.35L231.03-11.35 231.03-6.6Q231.03-4.1 231.75-3.18 232.48-2.25 234.28-2.25L234.28-2.25Q234.48-1.75 234.53-1.18 234.58-0.6 234.58 0.15L234.58 0.15Q233.88 0.1 232.83 0.08 231.78 0.05 230.63 0.03 229.48 0 228.38 0L228.38 0Q227.33 0 226.15 0.03 224.98 0.05 223.88 0.08 222.78 0.1 222.03 0.15L222.03 0.15Q222.03-0.6 222.1-1.23 222.18-1.85 222.33-2.25L222.33-2.25Q224.28-2.25 225-3.18 225.73-4.1 225.73-6.6L225.73-6.6 225.73-15.8 231.03-21Q231.03-20.4 230.95-19.65 230.88-18.9 230.63-18.05L230.63-18.05Q230.83-18.4 231.03-18.8 231.23-19.2 231.58-19.65L231.58-19.65Q232.48-20.8 234.33-21.95 236.18-23.1 238.73-23.1L238.73-23.1Q240.68-23.1 242.38-22.33 244.08-21.55 245.1-19.78 246.13-18 246.13-14.95L246.13-14.95ZM262.82 0.15L262.82 0.15Q262.82-0.45 262.9-1.1 262.97-1.75 263.12-2.25L263.12-2.25Q265.12-2.3 265.82-3.2 266.52-4.1 266.52-6.6L266.52-6.6 266.52-15.95Q266.52-17.15 266.3-17.93 266.07-18.7 265.27-19.1 264.47-19.5 262.77-19.5L262.77-19.5Q262.77-20.1 262.9-20.65 263.02-21.2 263.27-21.65L263.27-21.65Q264.27-21.65 265.77-21.9 267.27-22.15 268.62-22.55 269.97-22.95 270.62-23.35L270.62-23.35Q271.12-23.15 271.47-22.65 271.82-22.15 271.82-21.15L271.82-21.15 271.82-6.6Q271.82-4.1 272.5-3.2 273.17-2.3 274.82-2.25L274.82-2.25Q274.97-1.75 275.02-1.05 275.07-0.35 275.07 0.15L275.07 0.15Q274.27 0.1 273.27 0.08 272.27 0.05 271.17 0.03 270.07 0 269.02 0L269.02 0Q267.92 0 266.8 0.03 265.67 0.05 264.65 0.08 263.62 0.1 262.82 0.15ZM268.72-28.5L268.72-28.5Q267.27-28.5 266.35-29.38 265.42-30.25 265.42-31.55L265.42-31.55Q265.42-33.05 266.42-33.95 267.42-34.85 268.77-34.85L268.77-34.85Q270.32-34.85 271.22-33.95 272.12-33.05 272.12-31.6L272.12-31.6Q272.12-30.35 271.15-29.43 270.17-28.5 268.72-28.5ZM287.62-21L282.32-10.6 282.32-15.8Q282.32-17.1 282.1-17.88 281.87-18.65 281.07-19.05 280.27-19.45 278.62-19.5L278.62-19.5Q278.62-20.1 278.72-20.65 278.82-21.2 279.07-21.65L279.07-21.65Q280.97-21.75 283.12-22.25 285.27-22.75 286.42-23.35L286.42-23.35Q286.92-23.15 287.27-22.65 287.62-22.15 287.62-21L287.62-21ZM302.72-14.95L302.72-6.6Q302.72-4.05 303.4-3.15 304.07-2.25 305.57-2.25L305.57-2.25Q305.72-1.75 305.77-1.2 305.82-0.65 305.82 0.15L305.82 0.15Q304.72 0.05 303.22 0.03 301.72 0 300.17 0L300.17 0Q299.12 0 297.95 0.03 296.77 0.05 295.72 0.08 294.67 0.1 293.87 0.15L293.87 0.15Q293.87-0.6 293.92-1.2 293.97-1.8 294.17-2.25L294.17-2.25Q295.82-2.25 296.62-3.2 297.42-4.15 297.42-6.7L297.42-6.7 297.42-13.65Q297.42-17.1 296.22-18.35 295.02-19.6 293.02-19.6L293.02-19.6Q291.77-19.6 290.52-18.75 289.27-17.9 288.45-16.1 287.62-14.3 287.62-11.35L287.62-11.35 287.62-6.6Q287.62-4.1 288.35-3.18 289.07-2.25 290.87-2.25L290.87-2.25Q291.07-1.75 291.12-1.18 291.17-0.6 291.17 0.15L291.17 0.15Q290.47 0.1 289.42 0.08 288.37 0.05 287.22 0.03 286.07 0 284.97 0L284.97 0Q283.92 0 282.75 0.03 281.57 0.05 280.47 0.08 279.37 0.1 278.62 0.15L278.62 0.15Q278.62-0.6 278.7-1.23 278.77-1.85 278.92-2.25L278.92-2.25Q280.87-2.25 281.6-3.18 282.32-4.1 282.32-6.6L282.32-6.6 282.32-15.8 287.62-21Q287.62-20.4 287.55-19.65 287.47-18.9 287.22-18.05L287.22-18.05Q287.42-18.4 287.62-18.8 287.82-19.2 288.17-19.65L288.17-19.65Q289.07-20.8 290.92-21.95 292.77-23.1 295.32-23.1L295.32-23.1Q297.27-23.1 298.97-22.33 300.67-21.55 301.7-19.78 302.72-18 302.72-14.95L302.72-14.95ZM330.57 0.45L330.57 0.45Q326.82 0.45 324.39-1.15 321.97-2.75 320.74-5.45 319.52-8.15 319.52-11.4L319.52-11.4Q319.52-14.7 320.82-17.4 322.12-20.1 324.54-21.73 326.97-23.35 330.27-23.35L330.27-23.35Q333.62-23.35 335.67-21.95 337.72-20.55 338.74-18.2 339.77-15.85 339.92-12.9L339.92-12.9Q339.72-11.75 339.07-11L339.07-11Q338.07-11 336.34-11 334.62-11 332.49-10.98 330.37-10.95 328.14-10.88 325.92-10.8 323.97-10.7L323.97-10.7 323.97-13.45 334.27-13.45Q334.27-16.75 333.14-18.75 332.02-20.75 329.92-20.75L329.92-20.75Q328.72-20.75 327.62-20 326.52-19.25 325.82-17.48 325.12-15.7 325.12-12.55L325.12-12.55Q325.12-10.05 325.77-7.78 326.42-5.5 327.97-4.08 329.52-2.65 332.37-2.65L332.37-2.65Q334.02-2.65 335.64-3.35 337.27-4.05 338.52-5.35L338.52-5.35Q338.92-5.15 339.29-4.6 339.67-4.05 339.72-3.55L339.72-3.55Q337.97-1.4 335.69-0.48 333.42 0.45 330.57 0.45ZM356.61-23.35L356.61-23.35Q357.96-23.35 359.01-23.13 360.06-22.9 361.26-22.5L361.26-22.5 361.26-18.45Q360.26-19.5 359.16-20.18 358.06-20.85 356.41-20.85L356.41-20.85Q355.36-20.85 354.19-20.45 353.01-20.05 351.91-19.03 350.81-18 350.14-16.13 349.46-14.25 349.46-11.25L349.46-11.25Q349.46-8.3 350.31-6.5 351.16-4.7 352.39-3.83 353.61-2.95 354.76-2.95L354.76-2.95Q356.21-2.95 357.54-3.85 358.86-4.75 359.74-6.78 360.61-8.8 360.61-12.2L360.61-12.2 362.21-6.95Q361.51-5.25 360.96-4.33 360.41-3.4 360.06-3L360.06-3Q359.56-2.25 358.59-1.48 357.61-0.7 356.26-0.13 354.91 0.45 353.26 0.45L353.26 0.45Q350.36 0.45 348.24-0.7 346.11-1.85 344.94-4.28 343.76-6.7 343.76-10.5L343.76-10.5Q343.76-14.1 345.36-17 346.96-19.9 349.86-21.63 352.76-23.35 356.61-23.35ZM361.76-6.8L365.86-7.25Q365.86-6 366.06-5.2 366.26-4.4 366.94-4.05 367.61-3.7 368.91-3.7L368.91-3.7Q368.96-3.1 368.89-2.4 368.81-1.7 368.56-1.1L368.56-1.1Q367.16-1.05 365.41-0.65 363.66-0.25 362.36 0.45L362.36 0.45Q361.76 0.2 361.39-0.33 361.01-0.85 361.01-2.45L361.01-2.45Q361.01-3.45 361.21-4.28 361.41-5.1 361.76-6.8L361.76-6.8ZM360.61-28.7L365.86-28.7 365.86-6.4 360.61-6.4 360.61-28.7ZM364.66-35.85L364.66-35.85Q365.16-35.65 365.51-35.15 365.86-34.65 365.86-33.65L365.86-33.65 365.86-26.9 360.61-26.9 360.61-28.45Q360.61-29.65 360.36-30.43 360.11-31.2 359.31-31.6 358.51-32 356.86-32L356.86-32Q356.86-32.6 356.96-33.15 357.06-33.7 357.31-34.15L357.31-34.15Q358.36-34.15 359.84-34.4 361.31-34.65 362.69-35.05 364.06-35.45 364.66-35.85ZM382.06 0.2L382.06 0.2Q378.61 0.2 376.69-1.75 374.76-3.7 374.76-8.75L374.76-8.75 374.76-15.8Q374.76-17.7 374.26-18.57 373.76-19.45 371.51-19.5L371.51-19.5Q371.51-20.1 371.59-20.63 371.66-21.15 371.91-21.65L371.91-21.65Q373.76-21.75 375.74-22.25 377.71-22.75 378.86-23.35L378.86-23.35Q379.36-23.15 379.71-22.65 380.06-22.15 380.06-21L380.06-21 380.06-9.9Q380.06-6.55 380.91-4.85 381.76-3.15 383.91-3.15L383.91-3.15Q386.26-3.15 387.86-5.2 389.46-7.25 389.46-11.55L389.46-11.55 389.46-16.05Q389.46-17.95 388.84-18.82 388.21-19.7 385.76-19.75L385.76-19.75Q385.76-20.35 385.81-20.88 385.86-21.4 386.16-21.9L386.16-21.9Q388.36-22 390.39-22.43 392.41-22.85 393.56-23.35L393.56-23.35Q394.06-23.15 394.41-22.65 394.76-22.15 394.76-21L394.76-21 394.76-6.65 390.16-4.8Q389.91-4.1 389.46-3.45 389.01-2.8 388.41-2.25L388.41-2.25Q387.16-1.05 385.66-0.43 384.16 0.2 382.06 0.2ZM391.26 0.45L391.26 0.45Q390.66 0.2 390.29-0.33 389.91-0.85 389.91-2.45L389.91-2.45Q389.91-3.05 390.01-4.08 390.11-5.1 390.41-6.7L390.41-6.7 394.76-7.25Q394.76-6 394.96-5.2 395.16-4.4 395.81-4.05 396.46-3.7 397.81-3.7L397.81-3.7Q397.81-3.1 397.76-2.4 397.71-1.7 397.46-1.1L397.46-1.1Q396.06-1.05 394.31-0.65 392.56-0.25 391.26 0.45ZM420.66-3.6L420.66-3.6Q419.31-1.6 417.26-0.58 415.21 0.45 412.36 0.45L412.36 0.45Q409.56 0.45 407.11-0.88 404.66-2.2 403.08-4.83 401.51-7.45 401.51-11.35L401.51-11.35Q401.51-14.35 402.76-17.1 404.01-19.85 406.41-21.6 408.81-23.35 412.26-23.35L412.26-23.35Q414.71-23.35 416.66-22.8 418.61-22.25 420.06-21.15L420.06-21.15Q419.86-19.7 419.76-18.28 419.66-16.85 419.66-15.3L419.66-15.3Q419.16-15.05 418.36-14.95 417.56-14.85 416.91-14.85L416.91-14.85Q416.66-17.75 415.36-19.28 414.06-20.8 411.96-20.8L411.96-20.8Q409.66-20.8 408.28-18.53 406.91-16.25 406.91-12.1L406.91-12.1Q406.91-9.7 407.71-7.53 408.51-5.35 410.08-4 411.66-2.65 413.96-2.65L413.96-2.65Q415.56-2.65 416.96-3.35 418.36-4.05 419.41-5.3L419.41-5.3Q419.86-5.05 420.18-4.6 420.51-4.15 420.66-3.6ZM439.71 0.45L439.71 0.45Q439.11 0.2 438.76-0.48 438.41-1.15 438.41-2.5L438.41-2.5Q438.41-3 438.48-3.68 438.56-4.35 438.71-4.95L438.71-4.95 438.86-4.95Q438.66-4 438.08-3.05 437.51-2.1 436.66-1.35L436.66-1.35Q435.76-0.6 434.41-0.13 433.06 0.35 431.21 0.35L431.21 0.35Q428.01 0.35 426.28-1.07 424.56-2.5 424.56-5.05L424.56-5.05Q424.56-7 425.48-8.38 426.41-9.75 427.88-10.68 429.36-11.6 431.11-12.15 432.86-12.7 434.58-13.03 436.31-13.35 437.71-13.55L437.71-13.55Q437.71-15.45 437.63-16.55 437.56-17.65 437.33-18.32 437.11-19 436.66-19.5L436.66-19.5Q436.06-20.2 435.31-20.55 434.56-20.9 433.66-20.9L433.66-20.9Q432.06-20.9 431.16-19.93 430.26-18.95 429.86-17.63 429.46-16.3 429.36-15.15L429.36-15.15Q428.66-15.15 427.76-15.25 426.86-15.35 426.31-15.55L426.31-15.55Q426.41-16.85 426.38-18.4 426.36-19.95 426.06-21.15L426.06-21.15Q428.16-22.2 430.56-22.78 432.96-23.35 435.01-23.35L435.01-23.35Q437.16-23.35 438.61-22.8 440.06-22.25 440.86-21.35L440.86-21.35Q442.11-20.15 442.56-18.18 443.01-16.2 443.01-12.8L443.01-12.8 443.01-7.65Q443.01-6.2 443.23-5.35 443.46-4.5 444.11-4.13 444.76-3.75 446.06-3.7L446.06-3.7Q446.11-3.1 446.03-2.4 445.96-1.7 445.71-1.1L445.71-1.1Q444.31-1.05 442.66-0.65 441.01-0.25 439.71 0.45ZM432.91-2.8L432.91-2.8Q434.01-2.8 435.11-3.53 436.21-4.25 436.96-5.73 437.71-7.2 437.71-9.6L437.71-9.6 437.71-11.35Q436.41-11.15 435.06-10.85 433.71-10.55 432.58-10 431.46-9.45 430.78-8.55 430.11-7.65 430.11-6.15L430.11-6.15Q430.11-4.4 430.96-3.6 431.81-2.8 432.91-2.8ZM458.5 0.45L458.5 0.45Q455.4 0.45 453.88-1.15 452.35-2.75 452.35-6.4L452.35-6.4 452.35-19.3Q451.6-19.55 450.78-19.73 449.95-19.9 448.75-19.95L448.75-19.95Q448.75-20.65 448.85-21.2 448.95-21.75 449.2-22.4L449.2-22.4 452.35-22.4 452.35-28.85Q453.55-29.1 454.73-29.7 455.9-30.3 456.7-31L456.7-31Q457.25-30.8 457.45-30.35 457.65-29.9 457.65-28.25L457.65-28.25 457.65-22.4 464.05-22.4Q464.05-21.8 463.95-21.15 463.85-20.5 463.6-19.9L463.6-19.9Q461.8-19.9 460.33-19.7 458.85-19.5 457.65-19.25L457.65-19.25 457.65-7.4Q457.65-5.65 457.98-4.58 458.3-3.5 458.93-3 459.55-2.5 460.45-2.5L460.45-2.5Q461.45-2.5 462.23-2.78 463-3.05 463.7-3.6L463.7-3.6Q464.35-2.8 464.45-1.7L464.45-1.7Q463.6-0.8 461.9-0.18 460.2 0.45 458.5 0.45ZM467.55 0.15L467.55 0.15Q467.55-0.45 467.63-1.1 467.7-1.75 467.85-2.25L467.85-2.25Q469.85-2.3 470.55-3.2 471.25-4.1 471.25-6.6L471.25-6.6 471.25-15.95Q471.25-17.15 471.03-17.93 470.8-18.7 470-19.1 469.2-19.5 467.5-19.5L467.5-19.5Q467.5-20.1 467.63-20.65 467.75-21.2 468-21.65L468-21.65Q469-21.65 470.5-21.9 472-22.15 473.35-22.55 474.7-22.95 475.35-23.35L475.35-23.35Q475.85-23.15 476.2-22.65 476.55-22.15 476.55-21.15L476.55-21.15 476.55-6.6Q476.55-4.1 477.23-3.2 477.9-2.3 479.55-2.25L479.55-2.25Q479.7-1.75 479.75-1.05 479.8-0.35 479.8 0.15L479.8 0.15Q479 0.1 478 0.08 477 0.05 475.9 0.03 474.8 0 473.75 0L473.75 0Q472.65 0 471.53 0.03 470.4 0.05 469.38 0.08 468.35 0.1 467.55 0.15ZM473.45-28.5L473.45-28.5Q472-28.5 471.08-29.38 470.15-30.25 470.15-31.55L470.15-31.55Q470.15-33.05 471.15-33.95 472.15-34.85 473.5-34.85L473.5-34.85Q475.05-34.85 475.95-33.95 476.85-33.05 476.85-31.6L476.85-31.6Q476.85-30.35 475.88-29.43 474.9-28.5 473.45-28.5ZM495.1 0.45L495.1 0.45Q491.55 0.45 488.92-1.03 486.3-2.5 484.87-5.15 483.45-7.8 483.45-11.4L483.45-11.4Q483.45-14.9 484.97-17.6 486.5-20.3 489.15-21.83 491.8-23.35 495.15-23.35L495.15-23.35Q498.9-23.35 501.5-21.85 504.1-20.35 505.45-17.7 506.8-15.05 506.8-11.5L506.8-11.5Q506.8-8.05 505.35-5.33 503.9-2.6 501.27-1.07 498.65 0.45 495.1 0.45ZM495.6-2.2L495.6-2.2Q498.4-2.2 499.75-4.58 501.1-6.95 501.1-10.75L501.1-10.75Q501.1-13.85 500.22-16.13 499.35-18.4 497.87-19.58 496.4-20.75 494.65-20.75L494.65-20.75Q491.9-20.75 490.55-18.45 489.2-16.15 489.2-12.55L489.2-12.55Q489.2-9.35 489.97-7 490.75-4.65 492.2-3.43 493.65-2.2 495.6-2.2ZM519.55-21L514.25-10.6 514.25-15.8Q514.25-17.1 514.02-17.88 513.8-18.65 513-19.05 512.2-19.45 510.55-19.5L510.55-19.5Q510.55-20.1 510.65-20.65 510.75-21.2 511-21.65L511-21.65Q512.9-21.75 515.05-22.25 517.2-22.75 518.35-23.35L518.35-23.35Q518.85-23.15 519.2-22.65 519.55-22.15 519.55-21L519.55-21ZM534.65-14.95L534.65-6.6Q534.65-4.05 535.32-3.15 536-2.25 537.5-2.25L537.5-2.25Q537.65-1.75 537.7-1.2 537.75-0.65 537.75 0.15L537.75 0.15Q536.65 0.05 535.15 0.03 533.65 0 532.1 0L532.1 0Q531.05 0 529.87 0.03 528.7 0.05 527.65 0.08 526.6 0.1 525.8 0.15L525.8 0.15Q525.8-0.6 525.85-1.2 525.9-1.8 526.1-2.25L526.1-2.25Q527.75-2.25 528.55-3.2 529.35-4.15 529.35-6.7L529.35-6.7 529.35-13.65Q529.35-17.1 528.15-18.35 526.95-19.6 524.95-19.6L524.95-19.6Q523.7-19.6 522.45-18.75 521.2-17.9 520.37-16.1 519.55-14.3 519.55-11.35L519.55-11.35 519.55-6.6Q519.55-4.1 520.27-3.18 521-2.25 522.8-2.25L522.8-2.25Q523-1.75 523.05-1.18 523.1-0.6 523.1 0.15L523.1 0.15Q522.4 0.1 521.35 0.08 520.3 0.05 519.15 0.03 518 0 516.9 0L516.9 0Q515.85 0 514.67 0.03 513.5 0.05 512.4 0.08 511.3 0.1 510.55 0.15L510.55 0.15Q510.55-0.6 510.62-1.23 510.7-1.85 510.85-2.25L510.85-2.25Q512.8-2.25 513.52-3.18 514.25-4.1 514.25-6.6L514.25-6.6 514.25-15.8 519.55-21Q519.55-20.4 519.47-19.65 519.4-18.9 519.15-18.05L519.15-18.05Q519.35-18.4 519.55-18.8 519.75-19.2 520.1-19.65L520.1-19.65Q521-20.8 522.85-21.95 524.7-23.1 527.25-23.1L527.25-23.1Q529.2-23.1 530.9-22.33 532.6-21.55 533.62-19.78 534.65-18 534.65-14.95L534.65-14.95Z" opacity="1" transform="matrix(1,0,0,1,0,0)" fill="#000000" class="slogan-text-1" data-fill-palette-color="quaternary" id="text-1"></path></svg></g></svg></g></svg></g></svg></g><g transform="matrix(1,0,0,1,36.672,0)"><svg viewBox="0 0 118.656 118.656" height="118.656" width="118.656"><g><svg viewBox="0 0 118.656 118.656" height="118.656" width="118.656"><g transform="matrix(1,0,0,1,31.360512590509675,31.360512590509675)"><svg viewBox="0 0 55.934974818980656 55.934974818980656" height="55.934974818980656" width="55.934974818980656"><g><svg xmlns="http://www.w3.org/2000/svg" xmlns:xlink="http://www.w3.org/1999/xlink" version="1.1" x="0" y="0" viewBox="1 1 62 62" style="enable-background:new 0 0 64 64;" xml:space="preserve" height="55.934974818980656" width="55.934974818980656" class="icon-cg-0" data-fill-palette-color="quaternary" id="cg-0"><g fill="#000000" data-fill-palette-color="quaternary"><path d="M51 49.233v9.533L58.943 54 51 49.233zM53 52.767L55.057 54 53 55.233V52.767z" fill="#000000" data-fill-palette-color="quaternary"></path><rect x="49" y="27" width="10" height="2" fill="#000000" data-fill-palette-color="quaternary"></rect><rect x="49" y="35" width="10" height="2" fill="#000000" data-fill-palette-color="quaternary"></rect><path d="M47 43h14c1.103 0 2-0.897 2-2V25c0-1.103-0.897-2-2-2H47c-1.103 0-2 0.897-2 2v7h-6V19h4c1.103 0 2-0.897 2-2v-6h4v3.277l4 6.666 4-6.666V5c0-2.206-1.794-4-4-4s-4 1.794-4 4v4h-4c-1.103 0-2 0.897-2 2v6h-4V6c0-2.757-2.243-5-5-5H6C3.243 1 1 3.243 1 6v52c0 2.757 2.243 5 5 5h28c2.757 0 5-2.243 5-5V47h2v6c0 1.103 0.897 2 2 2h2.059c0.499 4.493 4.316 8 8.941 8 4.963 0 9-4.037 9-9s-4.037-9-9-9c-4.625 0-8.442 3.507-8.941 8H43v-6c0-1.103-0.897-2-2-2h-2V34h6v7C45 42.103 45.897 43 47 43zM47 25h14l0.002 16H47V25zM51 13V7h4v6H51zM51.766 15h2.468L53 17.057 51.766 15zM53 3c1.103 0 2 0.897 2 2h-4C51 3.897 51.897 3 53 3zM37 58c0 1.654-1.346 3-3 3H6c-1.654 0-3-1.346-3-3V6c0-1.654 1.346-3 3-3h28c1.654 0 3 1.346 3 3V58zM54 47c3.859 0 7 3.141 7 7s-3.141 7-7 7-7-3.141-7-7S50.141 47 54 47z" fill="#000000" data-fill-palette-color="quaternary"></path><rect x="49" y="31" width="4" height="2" fill="#000000" data-fill-palette-color="quaternary"></rect><rect x="55" y="31" width="4" height="2" fill="#000000" data-fill-palette-color="quaternary"></rect><path d="M12 27v4c0 2.206 1.794 4 4 4h4v2.184c-1.161 0.414-2 1.514-2 2.816 0 1.654 1.346 3 3 3s3-1.346 3-3c0-1.302-0.839-2.402-2-2.816V35c2.206 0 4-1.794 4-4v-4c1.103 0 2-0.897 2-2v-2c0-1.103-0.897-2-2-2h-4v-1c0-1.654-1.346-3-3-3s-3 1.346-3 3v1h-4c-1.103 0-2 0.897-2 2v2C10 26.103 10.897 27 12 27zM21 41c-0.552 0-1-0.448-1-1s0.448-1 1-1 1 0.448 1 1S21.552 41 21 41zM16 33c-1.103 0-2-0.897-2-2v-4h6v6H16zM24 31c0 1.103-0.897 2-2 2v-6h2V31zM26 23l0.002 2H22v-2H26zM18 20c0-0.552 0.448-1 1-1s1 0.448 1 1v1h-2V20zM12 23h8v2h-8V23z" fill="#000000" data-fill-palette-color="quaternary"></path><path d="M12 49c-1.654 0-3 1.346-3 3s1.346 3 3 3 3-1.346 3-3S13.654 49 12 49zM12 53c-0.552 0-1-0.448-1-1s0.448-1 1-1 1 0.448 1 1S12.552 53 12 53z" fill="#000000" data-fill-palette-color="quaternary"></path><path d="M20 49c-1.654 0-3 1.346-3 3s1.346 3 3 3 3-1.346 3-3S21.654 49 20 49zM20 53c-0.552 0-1-0.448-1-1s0.448-1 1-1 1 0.448 1 1S20.552 53 20 53z" fill="#000000" data-fill-palette-color="quaternary"></path><path d="M28 49c-1.654 0-3 1.346-3 3s1.346 3 3 3 3-1.346 3-3S29.654 49 28 49zM28 53c-0.552 0-1-0.448-1-1s0.448-1 1-1 1 0.448 1 1S28.552 53 28 53z" fill="#000000" data-fill-palette-color="quaternary"></path><rect x="23" y="9" width="2" height="2" fill="#000000" data-fill-palette-color="quaternary"></rect><rect x="15" y="9" width="6" height="2" fill="#000000" data-fill-palette-color="quaternary"></rect><path d="M33 5H7C5.897 5 5 5.897 5 7v50c0 1.103 0.897 2 2 2h26c1.103 0 2-0.897 2-2V7C35 5.897 34.103 5 33 5zM33 7l0 6H7V7H33zM33 15l0.001 30H7V15H33zM7 57V47h26.002l0 10H7z" fill="#000000" data-fill-palette-color="quaternary"></path></g></svg></g></svg></g><g id="text-0"><path d="M15.428 44.422l-9.221-2.957-0.981 1.601-1.033-0.331 1.327-4.139 10.679 3.424 0.978-1.59 1.032 0.331-1.881 5.865-1.032-0.331zM1.105 40.159v0c-0.45-0.144-0.767-0.395-0.951-0.751-0.183-0.357-0.203-0.76-0.059-1.211v0c0.148-0.463 0.401-0.786 0.758-0.969 0.357-0.183 0.76-0.203 1.21-0.059v0c0.431 0.138 0.739 0.382 0.925 0.732 0.188 0.344 0.204 0.757 0.049 1.24v0c-0.148 0.463-0.397 0.784-0.745 0.963-0.342 0.181-0.738 0.2-1.188 0.055z" fill="#000000" data-fill-palette-color="quaternary"></path><path d="M16.88 21.316l5.036 3.684-0.849 1.161-2.14-1.038-2.171 2.967 5.184 3.792 4.079-5.576-2.599-2.779 0.951-1.3 4.252 3.11-8.289 11.332-0.916-0.67 0.909-2.084-11.087-8.109-1.71 1.497-0.908-0.664 7.985-10.915 4.03 2.949-0.867 1.185-3.268-1.486-3.845 5.257 4.856 3.552 2.171-2.968-1.653-1.736z" fill="#000000" data-fill-palette-color="quaternary"></path><path d="M29.276 17.042v0c-0.528-0.896-0.906-1.81-1.134-2.742-0.228-0.932-0.262-1.774-0.101-2.527v0c0.133-0.666 0.404-1.269 0.815-1.809 0.417-0.543 0.977-1.022 1.681-1.437v0c0.611-0.36 1.225-0.569 1.841-0.626 0.626-0.055 1.311 0.097 2.057 0.457v0l-2.911-4.94-1.797 0.542-0.55-0.934 3.744-2.206 8.568 14.54 1.797-0.542 0.55 0.934-3.242 2.181-1.148-1.569c-0.052 0.869-0.271 1.582-0.656 2.138-0.38 0.553-0.904 1.027-1.573 1.421v0c-0.704 0.415-1.388 0.677-2.053 0.786-0.665 0.109-1.307 0.057-1.927-0.157v0c-0.724-0.271-1.436-0.702-2.137-1.293-0.695-0.594-1.303-1.333-1.824-2.217zM36.904 12.547v0c-0.48-0.815-0.958-1.485-1.433-2.012-0.479-0.533-0.929-0.911-1.35-1.133v0c-0.423-0.213-0.842-0.319-1.257-0.318-0.424-0.001-0.88 0.142-1.369 0.43v0c-0.407 0.24-0.736 0.54-0.987 0.899-0.251 0.359-0.382 0.762-0.393 1.208v0c-0.034 0.475 0.08 1.046 0.34 1.716 0.255 0.673 0.606 1.387 1.052 2.143v0c0.48 0.815 0.958 1.485 1.433 2.013 0.472 0.521 0.918 0.905 1.337 1.152v0c0.414 0.211 0.841 0.316 1.279 0.316 0.436-0.006 0.883-0.144 1.343-0.415v0c0.425-0.25 0.763-0.548 1.015-0.892 0.248-0.35 0.372-0.745 0.372-1.183v0c-0.001-0.493-0.115-1.073-0.342-1.739-0.231-0.671-0.578-1.4-1.041-2.185z" fill="#000000" data-fill-palette-color="quaternary"></path><path d="M45.749 2.166l4.063-0.573 0.916 6.5c0.14 0.996 0.273 1.742 0.397 2.236 0.132 0.5 0.278 0.882 0.438 1.145v0c0.213 0.352 0.494 0.602 0.842 0.751 0.355 0.148 0.73 0.194 1.124 0.138v0c0.421-0.059 0.805-0.192 1.152-0.397 0.353-0.207 0.661-0.465 0.924-0.775v0c0.554-0.665 0.776-1.61 0.664-2.835v0l-0.847-6.009-2.089-0.155-0.151-1.074 4.534-0.639 1.565 11.104 1.858 0.188 0.151 1.073-3.819 0.774-0.623-2.531-0.09 0.013c-0.343 0.86-0.869 1.575-1.58 2.146-0.718 0.565-1.522 0.91-2.411 1.035v0c-0.588 0.083-1.142 0.049-1.662-0.103-0.527-0.158-0.959-0.414-1.295-0.769v0c-0.356-0.393-0.66-0.978-0.912-1.753-0.252-0.769-0.471-1.816-0.658-3.14v0l-0.713-5.056-1.627-0.22z" fill="#000000" data-fill-palette-color="quaternary"></path><path d="M74.426 2.108v0c0.922 0.209 1.689 0.538 2.3 0.988 0.605 0.449 1.037 0.986 1.296 1.613 0.266 0.628 0.318 1.301 0.156 2.019v0c-0.139 0.613-0.389 1.047-0.752 1.305-0.356 0.259-0.778 0.333-1.266 0.222v0c-0.494-0.112-0.831-0.337-1.01-0.675-0.18-0.338-0.222-0.715-0.129-1.13v0c0.086-0.382 0.26-0.689 0.521-0.921 0.26-0.232 0.587-0.359 0.979-0.381v0c-0.123-0.436-0.38-0.799-0.771-1.089-0.385-0.288-0.877-0.5-1.477-0.635v0c-1.166-0.264-2.117-0.067-2.855 0.59-0.737 0.657-1.306 1.868-1.705 3.633v0c-0.176 0.777-0.274 1.44-0.295 1.99-0.019 0.543 0.032 1.022 0.153 1.436v0c0.172 0.586 0.456 1.076 0.851 1.471 0.394 0.401 0.92 0.676 1.579 0.824v0c0.692 0.157 1.402 0.155 2.13-0.005 0.729-0.16 1.389-0.478 1.982-0.954v0l0.722 0.891c-0.86 0.802-1.769 1.33-2.726 1.584-0.95 0.249-1.961 0.252-3.035 0.009v0c-1.087-0.246-1.976-0.676-2.668-1.29-0.69-0.62-1.164-1.403-1.421-2.347v0c-0.321-1.153-0.316-2.457 0.013-3.912v0c0.303-1.337 0.809-2.441 1.519-3.312 0.703-0.873 1.564-1.481 2.583-1.825 1.025-0.336 2.133-0.369 3.326-0.099z" fill="#000000" data-fill-palette-color="quaternary"></path><path d="M81.799 15.542v0c0.687-1.052 1.71-1.557 3.07-1.516 1.36 0.041 3.247 0.616 5.661 1.725v0c0.429-0.768 0.733-1.388 0.913-1.86 0.175-0.466 0.275-0.877 0.297-1.234v0c0.048-0.444-0.025-0.851-0.22-1.22-0.195-0.369-0.481-0.677-0.86-0.924v0c-0.345-0.225-0.697-0.366-1.054-0.423-0.358-0.057-0.651-0.01-0.879 0.14v0c0.109 0.241 0.137 0.489 0.083 0.744-0.054 0.255-0.138 0.471-0.252 0.646v0c-0.214 0.328-0.508 0.519-0.882 0.573-0.378 0.06-0.745-0.027-1.101-0.259v0c-0.345-0.225-0.549-0.524-0.613-0.896-0.069-0.376 0.022-0.756 0.273-1.141v0c0.358-0.548 0.855-0.889 1.491-1.023 0.636-0.133 1.31-0.104 2.023 0.088 0.723 0.19 1.381 0.479 1.975 0.866v0c0.565 0.369 1.027 0.792 1.386 1.268 0.359 0.476 0.602 0.962 0.731 1.457v0c0.321 1.435-0.189 3.179-1.53 5.232v0l-1.806 2.765c-0.425 0.65-0.676 1.127-0.753 1.432-0.078 0.304 0.028 0.55 0.316 0.739v0l0.89 0.581-0.454 0.696c-1.276-0.293-2.197-0.624-2.763-0.994v0c-0.407-0.266-0.588-0.594-0.543-0.984 0.054-0.392 0.357-1.009 0.907-1.852v0l-0.085-0.055c-0.847 0.407-1.732 0.583-2.655 0.528-0.915-0.057-1.762-0.34-2.543-0.85v0c-0.831-0.543-1.338-1.193-1.521-1.949-0.178-0.753-0.012-1.52 0.498-2.3zM84.598 19.184v0c0.328 0.214 0.747 0.351 1.257 0.41 0.51 0.059 1.002 0.009 1.476-0.149v0c0.353-0.108 0.7-0.305 1.04-0.591 0.334-0.29 0.66-0.678 0.978-1.164v0c0.129-0.198 0.257-0.405 0.382-0.622 0.129-0.222 0.244-0.442 0.345-0.658v0c-1.152-0.446-2.095-0.739-2.827-0.878-0.722-0.141-1.314-0.124-1.775 0.051-0.457 0.169-0.841 0.491-1.151 0.966v0c-0.369 0.565-0.518 1.077-0.447 1.535 0.074 0.468 0.314 0.834 0.722 1.1z" fill="#000000" data-fill-palette-color="quaternary"></path><path d="M102.907 21.38l-1.448-1.773 0.746-0.609 1.706 1.563 2.476-1.629 1.662 1.508-2.543 2.075 1.908 2.339-1.004 0.819-1.909-2.338-6.341 5.174c-0.419 0.342-0.699 0.579-0.843 0.714-0.139 0.14-0.243 0.268-0.313 0.386v0c-0.054 0.105-0.058 0.217-0.012 0.337 0.05 0.125 0.164 0.297 0.343 0.517v0l1.044 1.28-0.62 0.505c-0.736-0.454-1.349-0.878-1.836-1.273-0.493-0.391-0.855-0.727-1.086-1.01v0c-0.444-0.544-0.507-1.081-0.189-1.61v0c0.108-0.167 0.267-0.357 0.475-0.571 0.213-0.209 0.547-0.499 1.002-0.87v0z" fill="#000000" data-fill-palette-color="quaternary"></path><path d="M109.659 44.5v0l-3.172-7.6c-1.028 0.429-1.824 0.933-2.387 1.512v0c-0.496 0.529-0.783 1.095-0.861 1.699-0.084 0.606 0.002 1.214 0.257 1.825v0c0.278 0.667 0.683 1.233 1.214 1.699 0.528 0.475 1.147 0.828 1.857 1.058v0l-0.299 1.124c-0.911-0.22-1.776-0.609-2.595-1.167-0.821-0.565-1.48-1.442-1.977-2.633v0c-0.424-1.016-0.584-1.995-0.48-2.939 0.107-0.952 0.491-1.804 1.151-2.555v0c0.358-0.405 0.793-0.774 1.306-1.105 0.507-0.329 1.072-0.623 1.695-0.883v0c2.038-0.851 3.81-1.041 5.315-0.572 1.506 0.469 2.601 1.523 3.285 3.162v0c0.637 1.527 0.67 2.903 0.1 4.13-0.565 1.224-1.661 2.175-3.288 2.854v0c-0.15 0.062-0.294 0.119-0.434 0.17-0.14 0.051-0.369 0.125-0.687 0.221zM112.653 37.576v0c-0.697-1.67-2.357-2.053-4.98-1.149v0l2.185 5.235 0.673-0.281c1.016-0.424 1.707-0.969 2.073-1.634 0.36-0.663 0.376-1.386 0.049-2.171z" fill="#000000" data-fill-palette-color="quaternary"></path><path d="M5.913 76.749l9.967-3.251-0.147-2.019 1.118-0.364 1.457 4.469-11.548 3.765 0.147 2.019-1.117 0.364-2.066-6.337 1.117-0.364zM21.189 71.416v0c0.488-0.159 0.928-0.139 1.32 0.06 0.383 0.195 0.654 0.536 0.813 1.024v0c0.163 0.501 0.149 0.946-0.044 1.335-0.201 0.385-0.546 0.657-1.034 0.817v0c-0.469 0.153-0.894 0.135-1.274-0.053-0.387-0.186-0.666-0.539-0.836-1.06v0c-0.163-0.501-0.148-0.943 0.047-1.326 0.19-0.375 0.526-0.64 1.008-0.797z" fill="#000000" data-fill-palette-color="quaternary"></path><path d="M26.382 90.071l-5.443 3.986-0.922-1.259 1.766-1.858-2.357-3.22-5.607 4.105 4.428 6.048 3.71-1.774 1.029 1.405-4.602 3.369-8.988-12.276 0.989-0.724 1.858 1.628 12.007-8.791-0.991-2.262 0.989-0.724 8.652 11.819-4.372 3.201-0.934-1.275 2.607-2.887-4.171-5.697-5.264 3.853 2.358 3.221 2.337-1.146z" fill="#000000" data-fill-palette-color="quaternary"></path><path d="M28.937 100.791v0c0.57-0.973 1.234-1.813 1.992-2.52 0.762-0.712 1.539-1.192 2.333-1.439v0c0.702-0.223 1.417-0.281 2.146-0.175 0.732 0.1 1.48 0.374 2.243 0.82v0c0.664 0.389 1.188 0.864 1.572 1.426 0.384 0.561 0.599 1.29 0.645 2.186v0l3.138-5.359-1.45-1.412 0.594-1.014 4.056 2.375-9.236 15.769 1.45 1.413-0.594 1.013-3.764-1.911 0.885-1.912c-0.856 0.406-1.648 0.576-2.377 0.51-0.725-0.072-1.448-0.32-2.171-0.743v0c-0.763-0.447-1.373-0.957-1.828-1.529-0.455-0.572-0.743-1.21-0.863-1.914v0c-0.133-0.829-0.103-1.728 0.088-2.695 0.201-0.97 0.581-1.933 1.141-2.889zM37.205 105.634v0c0.519-0.886 0.902-1.694 1.151-2.426 0.248-0.731 0.368-1.357 0.361-1.878v0c-0.018-0.504-0.138-0.954-0.36-1.35-0.222-0.396-0.598-0.749-1.129-1.06v0c-0.443-0.259-0.9-0.414-1.372-0.463-0.478-0.053-0.93 0.031-1.356 0.251v0c-0.463 0.23-0.943 0.641-1.439 1.235-0.5 0.599-0.99 1.31-1.472 2.131v0c-0.515 0.88-0.898 1.681-1.149 2.403-0.248 0.731-0.378 1.36-0.388 1.886v0c0.018 0.504 0.145 0.962 0.381 1.373 0.236 0.412 0.602 0.763 1.097 1.054v0c0.46 0.27 0.92 0.433 1.379 0.491 0.463 0.052 0.9-0.04 1.313-0.276v0c0.465-0.26 0.954-0.674 1.467-1.243 0.513-0.568 1.018-1.278 1.516-2.128z" fill="#000000" data-fill-palette-color="quaternary"></path><path d="M47.269 102.456l4.406 0.603-0.964 7.045c-0.147 1.077-0.228 1.894-0.243 2.451-0.015 0.557 0.024 0.998 0.115 1.325v0c0.112 0.424 0.331 0.768 0.657 1.03 0.326 0.256 0.7 0.413 1.121 0.471v0c0.462 0.063 0.905 0.039 1.329-0.074 0.431-0.111 0.827-0.289 1.188-0.533v0c0.774-0.528 1.285-1.446 1.532-2.755v0l0.891-6.514-2.132-0.783 0.159-1.164 4.908 0.672-1.646 12.033 1.891 0.75-0.159 1.164-4.22-0.322 0.1-2.818-0.101-0.014c-0.606 0.79-1.364 1.378-2.276 1.764-0.911 0.38-1.848 0.504-2.811 0.372v0c-0.642-0.088-1.211-0.288-1.707-0.601-0.501-0.321-0.874-0.713-1.117-1.176v0c-0.256-0.519-0.403-1.217-0.44-2.094-0.036-0.884 0.045-2.046 0.242-3.484v0l0.748-5.47-1.63-0.714z" fill="#000000" data-fill-palette-color="quaternary"></path><path d="M71.641 102.226v0c0.994-0.228 1.893-0.264 2.698-0.11 0.805 0.155 1.481 0.478 2.03 0.969 0.547 0.484 0.911 1.118 1.091 1.901v0c0.152 0.665 0.117 1.206-0.106 1.625-0.229 0.42-0.611 0.691-1.144 0.813v0c-0.533 0.122-0.967 0.059-1.301-0.19-0.334-0.249-0.553-0.597-0.655-1.045v0c-0.095-0.415-0.071-0.794 0.071-1.139 0.148-0.353 0.41-0.631 0.786-0.835v0c-0.334-0.367-0.754-0.6-1.262-0.698-0.516-0.103-1.096-0.081-1.741 0.067v0c-1.264 0.29-2.101 0.929-2.512 1.916-0.411 0.988-0.398 2.436 0.04 4.346v0c0.195 0.849 0.409 1.541 0.643 2.077 0.242 0.54 0.514 0.987 0.816 1.34v0c0.446 0.494 0.955 0.841 1.528 1.042 0.573 0.201 1.215 0.22 1.925 0.058v0c0.75-0.172 1.443-0.507 2.077-1.006 0.642-0.494 1.141-1.114 1.496-1.861v0l1.108 0.526c-0.461 1.193-1.097 2.136-1.909 2.828-0.811 0.692-1.796 1.17-2.955 1.436v0c-1.185 0.272-2.256 0.268-3.213-0.012-0.964-0.278-1.794-0.815-2.49-1.611v0c-0.847-0.977-1.452-2.255-1.815-3.835v0c-0.332-1.448-0.359-2.762-0.082-3.941 0.282-1.187 0.84-2.184 1.673-2.992 0.838-0.816 1.906-1.372 3.203-1.669z" fill="#000000" data-fill-palette-color="quaternary"></path><path d="M85.57 108.783v0c-0.747-1.141-0.804-2.38-0.168-3.716 0.638-1.33 2.031-2.952 4.176-4.865v0c-0.582-0.765-1.065-1.337-1.45-1.715-0.39-0.374-0.759-0.653-1.106-0.838v0c-0.42-0.234-0.854-0.337-1.303-0.308-0.446 0.034-0.875 0.186-1.288 0.455v0c-0.373 0.244-0.665 0.532-0.876 0.864-0.211 0.332-0.29 0.642-0.238 0.931v0c0.283 0 0.539 0.083 0.768 0.248 0.229 0.165 0.405 0.341 0.527 0.527v0c0.233 0.356 0.296 0.73 0.19 1.122-0.108 0.402-0.354 0.729-0.739 0.981v0c-0.367 0.24-0.753 0.311-1.156 0.212-0.4-0.093-0.735-0.346-1.005-0.759v0c-0.392-0.599-0.514-1.241-0.366-1.927 0.142-0.682 0.463-1.34 0.96-1.973 0.503-0.636 1.077-1.165 1.721-1.587v0c0.61-0.4 1.231-0.673 1.861-0.819 0.625-0.143 1.211-0.172 1.76-0.087v0c1.562 0.301 3.071 1.565 4.529 3.791v0l1.958 2.992c0.459 0.701 0.822 1.157 1.09 1.369 0.274 0.208 0.566 0.211 0.877 0.007v0l0.966-0.633 0.488 0.746c-0.843 1.141-1.572 1.913-2.188 2.317v0c-0.441 0.289-0.846 0.324-1.214 0.105-0.36-0.217-0.839-0.782-1.439-1.698v0l-0.085 0.056c0.031 1.021-0.18 1.975-0.633 2.86-0.459 0.89-1.109 1.61-1.951 2.162v0c-0.898 0.588-1.764 0.808-2.596 0.658-0.829-0.144-1.518-0.636-2.07-1.478zM90.405 107.567v0c0.356-0.233 0.674-0.586 0.952-1.06 0.276-0.479 0.441-0.991 0.496-1.535v0c0.043-0.391-0.004-0.82-0.141-1.288-0.139-0.458-0.38-0.95-0.724-1.476v0c-0.141-0.215-0.293-0.429-0.458-0.644-0.163-0.224-0.329-0.434-0.498-0.631v0c-0.95 0.953-1.65 1.758-2.099 2.416-0.451 0.667-0.693 1.265-0.725 1.795-0.032 0.53 0.12 1.052 0.456 1.566v0c0.4 0.61 0.847 0.979 1.342 1.107 0.486 0.126 0.952 0.043 1.399-0.25z" fill="#000000" data-fill-palette-color="quaternary"></path><path d="M94.475 90.047l-1.578 1.916-0.805-0.664 1.297-2.147-2.251-2.287 1.245-2.085 2.745 2.261 2.08-2.525 1.087 0.895-2.081 2.525 6.849 5.642c0.448 0.369 0.76 0.613 0.934 0.731 0.175 0.127 0.332 0.213 0.471 0.256v0c0.119 0.037 0.239 0.018 0.362-0.056 0.121-0.084 0.279-0.243 0.472-0.478v0l1.14-1.383 0.672 0.553c-0.332 0.881-0.651 1.625-0.957 2.23-0.311 0.601-0.592 1.053-0.841 1.355v0c-0.489 0.594-1.047 0.778-1.674 0.551v0c-0.199-0.077-0.435-0.205-0.706-0.386-0.272-0.18-0.652-0.472-1.143-0.875v0z" fill="#000000" data-fill-palette-color="quaternary"></path><path d="M110.062 73.624v0l-3.536 8.193c1.116 0.482 2.108 0.722 2.976 0.722v0c0.786-0.014 1.443-0.216 1.972-0.605 0.537-0.393 0.948-0.918 1.231-1.576v0c0.31-0.719 0.447-1.462 0.411-2.228-0.031-0.764-0.224-1.509-0.58-2.236v0l1.104-0.616c0.512 0.876 0.86 1.842 1.044 2.9 0.181 1.064-0.006 2.237-0.56 3.52v0c-0.474 1.097-1.118 1.96-1.933 2.587-0.824 0.63-1.777 0.973-2.859 1.027v0c-0.585 0.027-1.198-0.035-1.839-0.187-0.643-0.145-1.3-0.362-1.97-0.651v0c-2.189-0.945-3.67-2.183-4.442-3.716-0.767-1.53-0.769-3.178-0.006-4.945v0c0.709-1.643 1.755-2.703 3.137-3.181 1.389-0.474 2.958-0.334 4.707 0.421v0c0.155 0.067 0.306 0.136 0.451 0.206 0.146 0.07 0.377 0.192 0.692 0.365zM102.42 76.504v0c-0.779 1.804 0.172 3.384 2.853 4.74v0l2.429-5.627-0.726-0.313c-1.097-0.474-2.038-0.604-2.821-0.391-0.792 0.217-1.371 0.747-1.735 1.591z" fill="#000000" data-fill-palette-color="quaternary"></path><path d="M1.38 58.935c0-3.883 3.148-7.031 7.031-7.031 3.883 0 7.031 3.148 7.031 7.031 0 3.883-3.148 7.031-7.031 7.031-3.883 0-7.031-3.148-7.031-7.031z" fill="#000000" data-fill-palette-color="quaternary"></path><path d="M104.594 58.935c0-3.883 3.148-7.031 7.031-7.031 3.883 0 7.031 3.148 7.031 7.031 0 3.883-3.148 7.031-7.031 7.031-3.883 0-7.031-3.148-7.031-7.031z" fill="#000000" data-fill-palette-color="quaternary"></path></g><g id="text-1"></g></svg></g></svg></g><g></g></svg></g></svg></g></svg></g><defs></defs></svg><rect width="320" height="360" fill="none" stroke="none" visibility="hidden"></rect></g></svg></g></svg>